<svg width="55" height="31" fill="none" xmlns="http://www.w3.org/2000/svg"><path d="M25.469 15.334a4.013 4.013 0 00-3.715 2.486c-.035.08-.138.387-.138.387l-2.35 9.492h5.39c1.85 0 3.422-1.243 3.854-2.921l2.35-9.444h-5.391z" fill="#16B14B"/><path d="M16.501 12.59c-1.797 0-3.318 1.146-3.801 2.696a2.55 2.55 0 00-.087.355L8.95 30.428h5.391c1.85 0 3.387-1.195 3.836-2.81l3.715-15.028h-5.39z" fill="#F27227"/><path d="M6.186 15.334a3.988 3.988 0 00-3.767 2.647c-.017.033-.017.065-.034.097l-.087.323L0 27.683h5.512a3.867 3.867 0 003.611-2.453l.225-.888 2.229-9.008H6.186z" fill="#1169B0"/><path d="M5.184 18.416l-.087.016c-.38 0-.743.13-1.071.388-.311.242-.536.532-.605.79l-1.227 5.021h.07c.38 0 .76-.13 1.088-.387.328-.259.553-.565.64-.92l.276-1.082H6.72c.38 0 .76-.13 1.089-.387.328-.259.553-.566.64-.92l.017-.065H4.613l.26-1.033h3.334c.38 0 .743-.13 1.072-.372.328-.258.535-.565.622-.92l.017-.064-4.734-.065zm13.616.307a1.175 1.175 0 00-.83-.307h-4.717l-1.503 6.167v.016h.07c.396 0 .76-.13 1.088-.388.328-.258.553-.565.639-.92l.276-1.098h3.266c.38 0 .726-.048 1.054-.29.328-.242.57-.646.657-1.017l.294-1.146c.017-.097.034-.178.034-.275a.944.944 0 00-.328-.742zm-1.47 2.097h-3.18l.26-1.033h3.18l-.26 1.033zm11.06-2.097a1.162 1.162 0 00-.812-.307h-4.976l-.018.048a1.684 1.684 0 00-.034.275c0 .307.104.549.31.759.208.193.485.306.83.306h1.037l-1.192 4.81h.069c.38 0 .76-.128 1.088-.387.329-.258.553-.564.64-.92l.864-3.503h2.453l.018-.048c.017-.097.034-.194.034-.275a.999.999 0 00-.31-.758z" fill="#fff"/><path d="M29.357 26.618c0-.58.518-1.065 1.14-1.065.622 0 1.14.484 1.14 1.065 0 .582-.518 1.066-1.14 1.066-.639 0-1.14-.468-1.14-1.066zm2.004 0c0-.5-.38-.855-.864-.855-.483 0-.864.355-.864.855s.38.856.864.856a.849.849 0 00.864-.856zm-1.313-.597h.484c.31 0 .484.097.484.355 0 .21-.121.307-.346.323l.346.533h-.242l-.329-.517h-.138v.517h-.242V26.02h-.017zm.242.517h.207c.139 0 .26-.017.26-.178 0-.145-.139-.161-.26-.161h-.207v.339zm7.153-2.597c-.346.485-.847.71-1.486.71-.64 0-1.123-.242-1.486-.71-.329-.436-.484-1.017-.484-1.743 0-.727.155-1.308.484-1.744.345-.468.846-.71 1.486-.71.639 0 1.123.242 1.486.71.328.436.483 1.017.483 1.744 0 .726-.155 1.291-.483 1.743zm-.605-3.035c-.208-.339-.501-.5-.864-.5s-.657.161-.881.5c-.19.323-.294.76-.294 1.292 0 .533.104.968.294 1.291.207.34.5.5.88.5.364 0 .657-.16.865-.5.19-.323.294-.758.294-1.291 0-.533-.087-.969-.294-1.292zm3.905 3.663v-2.357c0-.452-.26-.678-.795-.678-.276 0-.518.032-.691.113v2.938h-.76V21.21a4.122 4.122 0 011.451-.242c1.054 0 1.572.387 1.572 1.178v2.438h-.777v-.016zm1.469-.001v-5.166h.777v5.166h-.777zm2.194-4.294a.448.448 0 01-.328.113.475.475 0 01-.328-.113.393.393 0 01-.139-.29.39.39 0 01.139-.29.448.448 0 01.328-.114c.12 0 .242.032.328.113a.39.39 0 01.138.29.39.39 0 01-.138.291zm-.708 4.294v-3.551h.777v3.551h-.777zm3.714.001v-2.357c0-.452-.259-.678-.795-.678-.276 0-.518.032-.69.113v2.938h-.761V21.21a4.122 4.122 0 011.451-.242c1.055 0 1.573.387 1.573 1.178v2.438h-.778v-.016zm4.58-1.776l-2.523.323c.086.646.466.953 1.157.953.415 0 .76-.065 1.055-.21l.224.533c-.346.161-.777.242-1.33.242-.588 0-1.054-.162-1.383-.5-.328-.324-.483-.776-.483-1.34 0-.55.155-.985.449-1.324.31-.34.725-.517 1.261-.517.484 0 .864.145 1.158.42.276.274.415.662.415 1.13.017.129 0 .226 0 .29zm-.726-.387c0-.613-.294-.92-.847-.92-.294 0-.535.097-.708.307-.19.21-.277.484-.277.855l1.832-.242z" fill="#1169B0"/><path d="M2.93 6.63H1.316v-.65H2.93c.313 0 .566-.05.76-.15a.932.932 0 00.423-.415c.091-.177.137-.379.137-.606a1.29 1.29 0 00-.137-.585 1.012 1.012 0 00-.423-.44c-.194-.113-.447-.17-.76-.17H1.502V9h-.8V2.957H2.93c.457 0 .843.079 1.158.237.316.157.555.376.718.655.163.277.245.594.245.95 0 .388-.082.719-.245.993a1.565 1.565 0 01-.718.626c-.315.142-.701.212-1.158.212zm3.785-4.005V9h-.767V2.625h.767zm-.182 3.96l-.32-.013c.003-.307.049-.59.137-.85a2.12 2.12 0 01.374-.686 1.664 1.664 0 011.315-.61c.222 0 .42.03.598.092.177.058.328.152.452.282.128.13.224.299.29.506.067.205.1.455.1.751V9h-.771V6.05c0-.236-.035-.424-.104-.565a.638.638 0 00-.303-.312 1.088 1.088 0 00-.49-.1c-.19 0-.365.04-.523.121-.155.08-.29.191-.402.332a1.67 1.67 0 00-.262.486c-.06.18-.091.37-.091.572zm6.744 1.647V5.92a.938.938 0 00-.108-.46.706.706 0 00-.315-.307 1.144 1.144 0 00-.523-.108c-.194 0-.364.033-.51.1a.889.889 0 00-.341.26.573.573 0 00-.12.35h-.768c0-.161.041-.32.124-.478.083-.158.202-.3.357-.427.158-.13.346-.233.565-.308.221-.077.467-.116.739-.116.326 0 .614.056.863.166a1.3 1.3 0 01.59.502c.143.222.215.5.215.835V8.02c0 .149.012.308.037.477.028.169.068.314.12.436V9h-.8a1.434 1.434 0 01-.092-.353 2.85 2.85 0 01-.033-.415zm.133-1.955l.008.54h-.776c-.218 0-.414.018-.585.054a1.34 1.34 0 00-.432.153.693.693 0 00-.357.623c0 .141.032.27.096.386a.691.691 0 00.286.278c.13.066.29.1.477.1a1.296 1.296 0 001.05-.515.786.786 0 00.175-.42l.328.37c-.02.116-.072.245-.158.386a1.846 1.846 0 01-.85.727 1.65 1.65 0 01-.657.124c-.304 0-.571-.06-.8-.178a1.37 1.37 0 01-.532-.478 1.264 1.264 0 01-.187-.676c0-.241.047-.453.141-.635.095-.186.23-.34.407-.461.177-.124.39-.219.64-.282.248-.064.526-.096.834-.096h.892zm-1.374-2.432l.805-1.22h.926l-1.112 1.22h-.619zm5.097.664v.59h-2.428v-.59h2.428zm-1.606-1.091h.767v4.47c0 .152.024.267.071.344a.337.337 0 00.183.154.757.757 0 00.24.037c.064 0 .13-.005.2-.017.072-.013.125-.024.161-.033l.005.627a1.79 1.79 0 01-.241.054 1.83 1.83 0 01-.353.029c-.188 0-.361-.037-.519-.112a.834.834 0 01-.377-.374c-.092-.177-.137-.415-.137-.713V3.418zm6.495 1.091v.59h-2.428v-.59h2.428zm-1.606-1.091h.768v4.47c0 .152.023.267.07.344a.337.337 0 00.183.154.756.756 0 00.24.037c.064 0 .13-.005.2-.017.072-.013.126-.024.162-.033l.004.627c-.061.02-.141.037-.241.054a1.83 1.83 0 01-.353.029c-.188 0-.36-.037-.519-.112a.835.835 0 01-.377-.374c-.092-.177-.137-.415-.137-.713V3.418zm3.274 1.797V9h-.767V4.51h.747l.02.705zm1.403-.73l-.004.713a1.942 1.942 0 00-.373-.033c-.178 0-.334.028-.47.083a.972.972 0 00-.344.232c-.094.1-.169.22-.224.357a1.714 1.714 0 00-.104.449l-.216.124c0-.271.027-.526.08-.764.055-.237.139-.448.252-.63a1.24 1.24 0 01.432-.432 1.213 1.213 0 01.971-.1zm1.544.024V9h-.772V4.51h.772zm-.83-1.19c0-.125.038-.23.112-.316.078-.086.191-.129.34-.129.147 0 .26.043.337.129.08.085.12.19.12.315 0 .12-.04.221-.12.307-.078.083-.19.125-.337.125-.149 0-.262-.042-.34-.125a.452.452 0 01-.112-.307zm3.926 5.764c-.312 0-.596-.053-.85-.158a1.929 1.929 0 01-.652-.452 2.012 2.012 0 01-.415-.69 2.528 2.528 0 01-.145-.87v-.175c0-.365.054-.69.162-.975.107-.288.254-.532.44-.73.185-.2.395-.35.63-.453.236-.103.479-.154.73-.154.322 0 .598.056.83.166.236.111.428.266.578.465.15.197.26.429.332.697.072.266.108.557.108.872v.344h-3.354v-.626h2.586v-.058a1.917 1.917 0 00-.125-.581 1.045 1.045 0 00-.332-.465c-.152-.122-.36-.183-.622-.183a1.046 1.046 0 00-.86.436c-.105.144-.186.32-.244.527a2.672 2.672 0 00-.087.718v.174c0 .213.029.414.087.602.06.186.148.349.261.49.116.141.256.252.42.332.166.08.354.12.564.12.271 0 .5-.055.689-.166.188-.11.353-.258.494-.444l.465.37c-.097.146-.22.286-.37.419s-.333.24-.552.324a2.137 2.137 0 01-.768.124zm.279-6.259l1.137 1.092h-.71l-.818-.772-.813.772h-.706l1.13-1.092h.78zm1.265.519H30.8l-.004-.548c.122-.008.22-.02.295-.037a.357.357 0 00.166-.075.196.196 0 00.053-.145.19.19 0 00-.078-.162.48.48 0 00-.212-.087 1.38 1.38 0 00-.295-.03l.025-.385c.177 0 .332.016.465.05a.98.98 0 01.34.137.595.595 0 01.212.211c.047.08.07.172.07.274 0 .18-.058.311-.174.394a.851.851 0 01-.381.15l-.005.253zm1.868 2.125V9h-.768V4.51h.726l.042.958zm-.183 1.116l-.32-.012a2.7 2.7 0 01.138-.85c.088-.264.213-.492.373-.686a1.664 1.664 0 011.316-.61c.221 0 .42.03.598.092.177.058.328.152.452.282.127.13.224.299.29.506.067.205.1.455.1.751V9h-.772V6.05c0-.236-.034-.424-.104-.565a.638.638 0 00-.303-.312 1.088 1.088 0 00-.49-.1c-.19 0-.364.04-.522.121-.155.08-.29.191-.403.332a1.671 1.671 0 00-.353 1.058zm6.218-3.959h.772v5.503L39.885 9h-.705V2.625zm3.806 4.092v.087c0 .327-.04.63-.117.91a2.22 2.22 0 01-.34.722c-.15.204-.332.363-.548.477-.216.113-.463.17-.743.17a1.82 1.82 0 01-.75-.145 1.477 1.477 0 01-.54-.428 2.213 2.213 0 01-.353-.672 4.242 4.242 0 01-.179-.888v-.382c.034-.332.093-.63.179-.892a2.22 2.22 0 01.352-.673c.147-.188.327-.33.54-.427.213-.1.46-.15.743-.15.282 0 .533.056.751.166.219.108.401.263.548.465.15.202.263.444.34.726.078.28.117.591.117.934zm-.772.087v-.087c0-.224-.021-.434-.063-.63a1.632 1.632 0 00-.199-.524.992.992 0 00-.36-.356 1.066 1.066 0 00-.553-.133c-.194 0-.362.033-.506.1a1.095 1.095 0 00-.361.27c-.1.11-.182.237-.245.381a2.19 2.19 0 00-.137.44v1c.044.194.116.38.216.56.102.178.238.323.406.436.172.114.384.17.635.17.208 0 .385-.041.532-.124a.99.99 0 00.36-.353c.095-.15.164-.322.208-.519a2.87 2.87 0 00.067-.63zm5.561-2.789h.619c0 .305-.042.568-.125.789a.988.988 0 01-.415.506c-.194.12-.456.179-.789.179v-.482c.208 0 .361-.041.461-.124a.58.58 0 00.2-.349c.032-.15.05-.322.05-.519zm-4.022 2.79v-.096c0-.324.047-.624.142-.9.094-.28.23-.522.406-.727.177-.207.392-.368.644-.481.251-.117.534-.175.846-.175.316 0 .6.058.851.175.255.113.47.274.648.481.177.205.312.447.406.726.094.277.141.577.141.901v.095c0 .324-.047.624-.14.901-.095.277-.23.519-.407.726a1.883 1.883 0 01-.644.482 2.02 2.02 0 01-.846.17c-.316 0-.6-.057-.851-.17a1.924 1.924 0 01-.648-.482 2.194 2.194 0 01-.407-.726 2.783 2.783 0 01-.14-.9zm.768-.096v.095c0 .225.026.436.08.635.052.197.13.371.236.523.108.153.242.273.402.361.16.086.348.13.56.13.21 0 .395-.044.553-.13a1.16 1.16 0 00.398-.36c.105-.153.184-.327.237-.524a2.37 2.37 0 00.083-.635V6.71c0-.221-.028-.43-.083-.627a1.613 1.613 0 00-.241-.527 1.143 1.143 0 00-.399-.365 1.118 1.118 0 00-.556-.133c-.21 0-.395.044-.556.133-.158.088-.29.21-.398.365a1.666 1.666 0 00-.237.527 2.414 2.414 0 00-.079.627zm1.557-2.93h-.552l-.005-.631a2.3 2.3 0 00.345-.042.415.415 0 00.195-.095.245.245 0 00.062-.174.205.205 0 00-.054-.146.372.372 0 00-.15-.1.823.823 0 00-.219-.057 2.014 2.014 0 00-.266-.017l.03-.44c.204 0 .384.018.539.054.158.036.29.089.394.158a.677.677 0 01.24.249.61.61 0 01.084.315c0 .21-.066.364-.2.461a.983.983 0 01-.44.174l-.003.29zm3.577.73V9h-.772V4.51h.772zm-.83-1.19c0-.125.037-.23.112-.316.078-.086.191-.129.34-.129.147 0 .26.043.337.129.08.085.12.19.12.315 0 .12-.04.221-.12.307-.078.083-.19.125-.336.125-.15 0-.263-.042-.34-.125a.452.452 0 01-.113-.307z" fill="#797284"/></svg>