<svg width="169" height="63" fill="none" xmlns="http://www.w3.org/2000/svg"><path fill-rule="evenodd" clip-rule="evenodd" d="M43.25 60.804l2.438 1.587 10.168-24.939V.391H17.798L0 9.91l1.193 2.241L17.766 3.28v33.39L.382 53.43l1.762 1.827 17.41-16.783h33.14l-9.444 22.33zM19.035 37.206v-.001.001zm34.282-1.27H20.311V2.93h31.064l-7.82 7.324 1.739 1.854 8.023-7.515v31.342z" fill="url(#paint0_linear)"/><path d="M45.694 62.379L35.17 55.613H0v-45.7h45.7v52.466h-.006zM2.533 53.074h33.38l7.242 4.659V12.45H2.533v40.623z" fill="#FF7A00"/><path d="M83.684 44.629c-3.815 0-6.669-.92-8.561-2.758-1.893-1.84-2.84-4.673-2.84-8.501 0-3.436.812-6.134 2.434-8.093 1.652-1.99 4.25-2.985 7.795-2.985 2.103 0 3.83.392 5.182 1.176 1.382.753 2.403 1.808 3.064 3.165.691 1.326 1.037 2.833 1.037 4.521v4.025H75.979c.12 1.627.465 2.908 1.036 3.843.6.934 1.487 1.613 2.659 2.035 1.201.392 2.778.587 4.73.587 2.194 0 4.207-.376 6.039-1.13v2.894c-.931.392-1.983.693-3.154.904a19.81 19.81 0 01-3.605.317zM75.979 32.51h12.526v-1.764c0-1.748-.465-3.09-1.396-4.024-.902-.964-2.404-1.447-4.506-1.447-2.554 0-4.296.603-5.227 1.81-.932 1.205-1.397 3.014-1.397 5.425zm19.745 11.666V15.058h14.69c2.914 0 5.077.693 6.488 2.08 1.442 1.356 2.163 3.285 2.163 5.787 0 1.568-.3 2.879-.901 3.934a6.417 6.417 0 01-2.433 2.396c1.352.422 2.418 1.13 3.199 2.126.811.964 1.217 2.396 1.217 4.295 0 2.803-.796 4.928-2.388 6.375-1.563 1.417-3.831 2.125-6.805 2.125h-15.23zm6.083-17.046h7.48c1.472 0 2.524-.316 3.154-.95.631-.662.947-1.582.947-2.757 0-1.296-.331-2.261-.992-2.894-.63-.633-1.817-.95-3.559-.95h-7.03v7.551zm0 12.57h7.706c1.532 0 2.658-.316 3.379-.95.721-.632 1.081-1.748 1.081-3.345 0-1.297-.36-2.261-1.081-2.894-.691-.633-1.953-.95-3.785-.95h-7.3v8.14zm32.342 4.929c-3.996 0-6.924-.965-8.787-2.894-1.862-1.96-2.794-4.718-2.794-8.274 0-3.557.932-6.3 2.794-8.23 1.893-1.959 4.822-2.939 8.787-2.939 3.995 0 6.924.98 8.787 2.94 1.892 1.928 2.838 4.672 2.838 8.229 0 3.556-.931 6.315-2.793 8.274-1.863 1.929-4.807 2.894-8.832 2.894zm0-5.2c1.952 0 3.349-.437 4.19-1.311.842-.905 1.262-2.457 1.262-4.657 0-2.201-.42-3.738-1.262-4.612-.841-.905-2.238-1.357-4.19-1.357-1.923 0-3.305.452-4.146 1.357-.841.874-1.261 2.411-1.261 4.612 0 2.2.42 3.752 1.261 4.657.841.874 2.223 1.31 4.146 1.31zm11.533 4.747l8.201-10.896-7.886-10.536h6.579l4.596 6.24 4.596-6.24h6.579l-7.84 10.536 8.155 10.896h-6.623l-4.867-6.556-4.866 6.556h-6.624z" fill="#013EA7"/><defs><linearGradient id="paint0_linear" x1="46.459" y1=".391" x2="27.928" y2="62.391" gradientUnits="userSpaceOnUse"><stop stop-color="#003EA7"/><stop offset="1" stop-color="#2A8CEE"/></linearGradient></defs></svg>